HIERARCHY
ROOT Hips
{
	OFFSET 0.00 0.00 0.00
	CHANNELS 6 Xposition Yposition Zposition Yrotation Xrotation Zrotation
	JOINT LHipJoint
	{
		OFFSET	0.0000	0.0000	0.0000
		CHANNELS 3 Yrotation Xrotation Zrotation
		JOINT LeftUpLeg
		{
			OFFSET	1.0138	-0.0809	-0.0827
			CHANNELS 3 Yrotation Xrotation Zrotation
			JOINT LeftLeg
			{
				OFFSET	0.4110	-3.9095	0.3245
				CHANNELS 3 Yrotation Xrotation Zrotation
				JOINT LeftFoot
				{
					OFFSET	0.3810	-4.0555	-0.1470
					CHANNELS 3 Yrotation Xrotation Zrotation
					JOINT LeftToeBase
					{
						OFFSET	0.1396	-0.4462	1.3079
						CHANNELS 3 Yrotation Xrotation Zrotation
						End Site
						{
							OFFSET 0.0161 -0.0248 0.1809
						}
					}
				}
			}
		}
	}
	JOINT LowerBack
	{
		OFFSET	0.0000	0.7977	-0.3873
		CHANNELS 3 Yrotation Xrotation Zrotation
		JOINT Spine
		{
			OFFSET	0.0000	1.4131	0.1715
			CHANNELS 3 Yrotation Xrotation Zrotation
			JOINT Spine1
			{
				OFFSET	0.0000	1.4392	-0.1032
				CHANNELS 3 Yrotation Xrotation Zrotation
				JOINT LeftShoulder
				{
					OFFSET	0.2274	1.0382	0.4032
					CHANNELS 3 Yrotation Xrotation Zrotation
					JOINT LeftArm
					{
						OFFSET	1.4730	-0.2267	-0.0231
						CHANNELS 3 Yrotation Xrotation Zrotation
						JOINT LeftForeArm
						{
							OFFSET	1.6131	-1.8059	0.0081
							CHANNELS 3 Yrotation Xrotation Zrotation
							JOINT LeftHand
							{
								OFFSET	1.2197	-1.2423	1.6317
								CHANNELS 3 Yrotation Xrotation Zrotation
								JOINT LThumb
								{
									OFFSET	0.0109	-0.0753	0.4387
									CHANNELS 3 Yrotation Xrotation Zrotation
									End Site
									{
										OFFSET -0.2090 -0.0868 0.2097
									}
								}
								JOINT LeftFingerBase
								{
									OFFSET	0.1071	-0.1567	0.2607
									CHANNELS 3 Yrotation Xrotation Zrotation
									JOINT LeftHandFinger1
									{
										OFFSET	0.1706	-0.2492	0.6830
										CHANNELS 3 Yrotation Xrotation Zrotation
										End Site
										{
											OFFSET 0.0335 -0.1507 0.2071
										}
									}
								}
							}
						}
					}
				}
				JOINT Neck
				{
					OFFSET	0.0000	1.7498	0.2381
					CHANNELS 3 Yrotation Xrotation Zrotation
					JOINT Neck1
					{
						OFFSET	0.0000	0.5043	0.1959
						CHANNELS 3 Yrotation Xrotation Zrotation
						JOINT Head
						{
							OFFSET	0.0000	0.5044	0.1959
							CHANNELS 3 Yrotation Xrotation Zrotation
							End Site
							{
								OFFSET 0.0000 1.4798 -0.0693
							}
						}
					}
				}
				JOINT RightShoulder
				{
					OFFSET	-0.2274	1.0382	0.4032
					CHANNELS 3 Yrotation Xrotation Zrotation
					JOINT RightArm
					{
						OFFSET	-1.4730	-0.2267	-0.0231
						CHANNELS 3 Yrotation Xrotation Zrotation
						JOINT RightForeArm
						{
							OFFSET	-1.6131	-1.8059	0.0081
							CHANNELS 3 Yrotation Xrotation Zrotation
							JOINT RightHand
							{
								OFFSET	-1.2197	-1.2423	1.6317
								CHANNELS 3 Yrotation Xrotation Zrotation
								JOINT RThumb
								{
									OFFSET	-0.0109	-0.0753	0.4387
									CHANNELS 3 Yrotation Xrotation Zrotation
									End Site
									{
										OFFSET 0.2090 -0.0868 0.2097
									}
								}
								JOINT RightFingerBase
								{
									OFFSET	-0.1071	-0.1567	0.2607
									CHANNELS 3 Yrotation Xrotation Zrotation
									JOINT RightHandFinger1
									{
										OFFSET	-0.1706	-0.2492	0.6830
										CHANNELS 3 Yrotation Xrotation Zrotation
										End Site
										{
											OFFSET -0.0335 -0.1507 0.2071
										}
									}
								}
							}
						}
					}
				}
			}
		}
	}
	JOINT RHipJoint
	{
		OFFSET	0.0000	0.0000	0.0000
		CHANNELS 3 Yrotation Xrotation Zrotation
		JOINT RightUpLeg
		{
			OFFSET	-1.0138	-0.0809	-0.0827
			CHANNELS 3 Yrotation Xrotation Zrotation
			JOINT RightLeg
			{
				OFFSET	-0.4110	-3.9095	0.3245
				CHANNELS 3 Yrotation Xrotation Zrotation
				JOINT RightFoot
				{
					OFFSET	-0.3810	-4.0555	-0.1470
					CHANNELS 3 Yrotation Xrotation Zrotation
					JOINT RightToeBase
					{
						OFFSET	-0.1396	-0.4462	1.3079
						CHANNELS 3 Yrotation Xrotation Zrotation
						End Site
						{
							OFFSET -0.0161 -0.0248 0.1809
						}
					}
				}
			}
		}
	}
}
MOTION
Frames: 14
Frame Time: 0.0333333
0.0387 8.5425 0.0185 10.0583 -0.2733 -4.2644 0.0000 -0.0000 0.0000 -0.1834 -18.9871 -2.7237 16.8536 63.2019 18.8751 0.0431 -2.3884 4.4146 -0.0000 -1.5672 -0.0000 0.0000 -0.0000 0.0000 -1.8500 0.4987 1.4846 -3.5926 1.0168 2.3898 -21.1304 7.7303 9.5815 4.1891 2.5265 -38.0227 3.8579 5.4793 -1.8303 -11.8741 -1.4245 19.2154 17.6902 -13.0113 46.1691 11.8785 10.2097 3.6420 -5.6192 -3.6898 -2.2281 -1.1533 -3.3669 -0.9162 -0.1120 2.3060 1.8590 -3.6169 -3.7667 -1.3081 5.2470 -0.8514 -4.1009 0.8717 22.4268 34.6202 -6.4126 8.2930 1.5755 8.2173 14.8905 -18.5909 -27.3390 -9.9752 -30.1742 1.1949 15.3375 6.3536 11.6697 2.3728 7.2524 0.0000 -0.0000 0.0000 -12.2338 -4.3875 16.6487 -0.0632 15.2699 -1.6732 -3.9814 -10.0450 -9.8705 -0.0000 -2.7732 0.0000 
0.0678 8.5637 0.0090 8.4688 0.5078 -3.2321 0.0000 -0.0000 0.0000 -0.8311 -24.7218 -5.4842 16.1601 55.8920 17.6196 0.3218 -4.5458 2.4306 -0.0000 -0.7889 0.0000 0.0000 -0.0000 0.0000 -0.9637 0.1345 1.0535 -1.8878 0.2685 1.3883 -21.2157 7.5551 8.9304 7.1980 5.7218 -39.5204 6.2924 8.1616 -1.5902 -13.4094 10.4882 16.3367 19.4174 -15.9342 46.8586 9.6524 13.0171 2.9498 -5.7395 -3.5588 -2.3260 -1.3115 -2.9235 -0.6650 -0.2116 2.4991 1.9597 -3.9498 -3.0096 -0.9083 5.5739 -0.8562 -4.0214 0.1323 16.6875 33.5465 -5.8164 7.6402 1.6461 6.5636 15.8616 -20.2766 -27.5407 -10.2847 -29.8513 1.5485 15.1502 6.5523 11.6793 2.3816 7.2606 0.0000 -0.0000 0.0000 -12.4162 -1.6743 15.5171 -0.2893 15.3087 -2.1210 -1.3660 -12.1911 -9.8731 -0.0000 -2.7073 -0.0000 
0.1034 8.5327 0.0012 6.0599 1.3875 -2.1046 0.0000 -0.0000 0.0000 -0.9223 -28.5669 -7.1646 13.3894 45.9946 13.9129 0.4248 -4.8482 2.2459 0.0000 -0.1312 -0.0000 0.0000 -0.0000 0.0000 0.0408 -0.1256 0.6943 0.0430 -0.2508 0.7052 -20.0286 7.0713 7.0898 11.0595 9.5460 -38.6900 6.7397 8.6500 -1.5338 -18.0567 25.9074 13.5679 21.1976 -19.0310 47.6202 8.2232 14.7133 3.0942 -5.8129 -3.4791 -2.3858 -1.2530 -3.1205 -1.0239 -0.2278 2.3402 1.7477 -4.2067 -2.2962 -0.6221 6.3817 -0.7790 -5.6372 0.1027 10.9769 33.7896 -5.4997 7.2924 1.6809 5.1462 16.1463 -20.4784 -26.8409 -10.3302 -29.6124 1.9624 15.0277 6.8178 11.6313 2.3376 7.2199 0.0000 -0.0000 0.0000 -12.6138 0.5418 13.7342 0.6942 16.2420 -1.9817 1.7979 -15.4396 -10.0394 0.0000 -2.4112 -0.0000 
0.1433 8.4731 0.0062 3.2584 2.1588 -0.8098 0.0000 -0.0000 0.0000 0.0805 -31.0096 -8.5192 10.2574 34.3743 9.8826 0.2451 -4.2504 3.3292 0.0000 -0.2301 -0.0000 0.0000 -0.0000 0.0000 0.8125 -0.3263 0.1623 1.5245 -0.6439 -0.2074 -17.0722 6.6747 5.2448 14.8368 13.2463 -36.7615 6.7452 8.6560 -1.5331 -23.2253 40.8529 11.7315 22.6521 -21.9006 48.2997 8.8794 12.8971 5.4653 -6.0096 -3.2664 -2.5461 -1.0402 -3.5024 -1.4282 -0.1151 2.1157 1.5646 -3.9225 -1.9540 -0.6427 7.9187 -0.6592 -7.2656 1.1709 5.8608 34.2478 -5.4119 7.1959 1.6902 4.3065 15.6001 -19.1685 -25.7407 -10.3826 -29.2823 2.4901 15.1778 7.2604 11.5027 2.2195 7.1112 0.0000 -0.0000 0.0000 -13.1801 3.0521 11.2975 4.1857 17.0786 -1.0562 2.5940 -19.1538 -10.1016 0.0000 -2.3925 0.0000 
0.1784 8.4000 0.0334 0.5630 2.5449 0.0993 0.0000 -0.0000 0.0000 1.6832 -32.7222 -9.2836 7.5522 23.5658 6.5929 -0.1081 -4.0735 4.2662 0.0000 -1.8260 -0.0000 0.0000 -0.0000 0.0000 1.4866 -0.2702 -0.1789 2.8276 -0.5225 -0.7208 -14.0807 6.4601 3.8047 16.4334 15.9097 -35.0470 7.8821 9.8896 -1.3727 -29.4961 48.5501 9.4347 23.4604 -24.1162 48.7299 9.7616 10.1725 8.3379 -6.1674 -3.0965 -2.6748 -0.6899 -4.1270 -2.2127 0.0463 1.8168 1.2036 -3.6219 -1.8465 -0.6420 9.9890 -0.4039 -9.7154 2.6061 1.6270 35.3863 -5.2511 7.0189 1.7068 4.3958 14.1789 -17.0069 -24.1342 -10.7137 -28.5557 3.4287 15.7743 8.1831 11.4308 2.1532 7.0505 0.0000 -0.0000 0.0000 -14.3461 6.7385 8.5765 7.9556 16.4204 0.0476 2.9889 -21.7694 -10.3271 -0.0000 -2.9946 -0.0000 
0.2035 8.3126 0.0819 -1.6850 2.4662 0.1846 0.0000 -0.0000 0.0000 2.9191 -34.4580 -9.0720 5.8837 16.6900 4.5511 -0.5772 -5.8859 4.6294 0.0000 -4.4516 0.0000 0.0000 -0.0000 0.0000 2.0211 -0.0849 -0.2477 3.8423 -0.1504 -0.7143 -11.5796 6.4028 2.9580 15.9971 17.3708 -33.9620 10.7337 12.9279 -0.8645 -33.8054 47.0561 8.3466 23.4633 -25.5375 48.8016 8.3399 11.1664 8.7017 -6.1616 -3.1028 -2.6700 -0.4099 -4.7922 -2.8145 0.1823 1.4574 0.9151 -3.3432 -1.9783 -0.7439 11.5753 -0.1497 -11.5371 5.1777 -1.4545 35.6150 -4.5345 6.2285 1.7750 5.0191 11.9759 -14.7088 -21.6942 -11.5046 -27.1931 5.3798 16.7832 10.0611 11.4932 2.2107 7.1032 0.0000 -0.0000 0.0000 -15.8679 11.1595 6.0576 8.7815 15.1375 0.3583 5.7389 -22.4233 -10.3877 0.0000 -5.3395 -0.0000 
0.2379 8.1884 0.1447 -3.5329 2.3786 -0.0059 0.0000 -0.0000 0.0000 3.8064 -37.1417 -8.5732 5.5881 16.6757 3.6806 -1.0899 -10.0536 3.8724 -0.0000 -6.9726 -0.0000 0.0000 -0.0000 0.0000 2.5196 -0.0353 -0.1813 4.7610 -0.0479 -0.6011 -10.2244 6.4375 2.8070 16.2380 20.1769 -33.6066 11.7100 13.9469 -0.6566 -31.3443 40.2790 9.0612 22.8892 -26.4182 48.5983 6.4292 12.9563 8.3027 -6.1156 -3.1522 -2.6325 -0.3054 -5.1876 -3.0061 0.2433 1.1952 0.8124 -3.1458 -2.3160 -1.1877 12.3072 -0.0198 -12.3002 8.0371 -2.8142 34.5296 -2.2888 3.7338 1.9243 5.1436 9.8668 -13.5215 -19.2236 -12.6221 -25.5360 7.9891 17.8372 12.5539 11.7641 2.4591 7.3323 0.0000 -0.0000 0.0000 -17.0580 15.0964 3.8157 8.8326 14.7758 -0.1098 8.4564 -22.7169 -9.8957 -0.0000 -9.6388 0.0000 
0.2726 8.0808 0.1743 -4.5935 2.3999 0.3063 0.0000 -0.0000 0.0000 4.1774 -38.2735 -8.6084 6.1130 18.8589 3.4381 -1.0736 -10.9230 1.8099 0.0000 -9.6770 0.0000 0.0000 -0.0000 0.0000 2.7848 -0.1105 -0.2665 5.2247 -0.1932 -0.7587 -9.2761 6.4812 2.8191 18.4686 23.9324 -33.2385 10.7612 12.9568 -0.8589 -26.3710 34.4871 9.7134 22.0215 -26.8903 48.2407 4.2033 15.2687 7.2471 -5.9963 -3.2807 -2.5352 -0.2825 -5.1519 -2.9491 0.2788 1.2550 0.8492 -2.9051 -2.2388 -1.8284 12.3575 -0.0272 -12.1515 10.2230 -3.5207 32.7302 0.1239 1.0363 1.9755 4.6923 7.9384 -14.2090 -17.9514 -13.5691 -24.3076 9.8343 18.5050 14.3434 11.9802 2.6558 7.5153 0.0000 -0.0000 0.0000 -17.3530 17.8627 2.2826 8.4036 15.8517 -1.5390 7.6922 -21.6034 -7.9775 -0.0013 -15.3282 0.3169 
0.3142 8.0939 0.1922 -4.5997 2.0540 1.4783 0.0000 -0.0000 0.0000 4.6661 -34.1585 -10.2402 5.9991 16.4622 2.9148 -0.7372 -4.1767 2.8602 0.0000 -12.2450 -0.0000 0.0000 -0.0000 0.0000 2.6849 -0.1842 -0.6444 5.0307 -0.3383 -1.3217 -9.0089 6.4982 2.8636 22.3163 24.9718 -32.7903 11.9247 14.1693 -0.6087 -22.7315 32.7119 10.4987 21.1296 -27.0728 47.8543 2.9349 16.4221 6.9213 -5.9465 -3.3345 -2.4946 -0.3410 -4.7918 -2.6676 0.2866 1.5561 1.0179 -2.6844 -1.8709 -2.4195 11.7896 -0.1157 -11.6099 14.3645 -4.7700 30.1363 0.0224 1.1500 1.9756 3.0800 3.4200 -15.4869 -18.6871 -13.7748 -24.1805 9.9985 18.5982 14.5133 12.0402 2.7102 7.5661 0.0000 -0.0000 0.0000 -17.1632 20.3656 0.8442 8.3281 16.8252 -3.3889 4.1007 -14.2612 -4.8661 -1.3918 -32.8294 7.1431 
0.3521 8.1238 0.2477 -4.4589 1.2644 2.3889 0.0000 -0.0000 0.0000 4.9609 -30.3309 -11.9791 6.5137 17.3519 2.9056 -0.2706 2.0899 7.4737 0.0000 -12.9749 -0.0000 0.0000 -0.0000 0.0000 2.5343 -0.2217 -0.9313 4.7356 -0.4118 -1.7615 -9.3264 6.4591 2.7374 25.5937 25.9465 -32.0341 11.4935 13.7220 -0.7042 -18.3853 33.6279 11.6363 20.4823 -27.0731 47.5673 3.0917 15.9184 7.7730 -5.9967 -3.2803 -2.5355 -0.4251 -4.5246 -2.3380 0.2763 1.7112 1.1868 -2.5591 -1.2256 -2.4132 10.7423 -0.2217 -11.1228 17.4513 -5.0703 28.6019 0.4466 0.6751 1.9737 1.0108 0.1725 -16.8305 -20.4287 -13.3073 -24.9614 8.9380 18.2762 13.4944 12.0762 2.7427 7.5967 0.0000 -0.0000 0.0000 -15.8417 19.3267 -0.4068 7.0705 23.7444 -3.9798 0.0694 -2.4698 2.9994 -2.6008 -32.4795 48.6944 
0.4082 8.1728 0.2950 -4.2427 0.7310 3.5887 0.0000 -0.0000 0.0000 4.5755 -26.5517 -13.2639 6.8902 17.8790 2.8512 0.3443 7.2832 6.4537 -0.0000 -11.1868 0.0000 0.0000 -0.0000 0.0000 2.2258 -0.2245 -1.2924 4.1546 -0.4100 -2.4476 -9.3753 6.2397 1.4327 25.3078 25.9562 -30.7611 10.1877 12.3530 -0.9734 -15.6061 35.3438 12.0631 20.1208 -26.9564 47.4033 2.7754 16.0437 7.8149 -6.0270 -3.2477 -2.5602 -0.4224 -4.4853 -2.2719 0.2913 1.7624 1.2312 -2.4849 -1.0919 -2.1609 10.1852 -0.2909 -10.6587 18.1447 -4.3574 28.6429 2.0672 -1.1385 1.9340 -0.2663 -1.1458 -18.4016 -20.2638 -12.4538 -25.8668 7.7530 17.7409 12.3162 12.0011 2.6747 7.5330 0.0000 -0.0000 0.0000 -12.8097 15.1499 -1.2976 3.8361 36.4786 -4.2455 -0.8679 5.3425 5.5978 -0.0000 -7.7383 0.0000 
0.4685 8.2620 0.3309 -3.4538 0.2629 4.6556 0.0000 -0.0000 0.0000 4.5542 -22.5811 -15.0240 6.8001 19.3520 2.7116 -0.2961 2.4288 8.6983 -0.0000 -1.8503 -0.0000 0.0000 -0.0000 0.0000 1.6117 0.0222 -1.3181 3.1293 0.1008 -3.1251 -9.7908 5.9356 -0.2241 22.0555 23.8539 -30.2568 9.6049 11.7356 -1.0835 -14.9197 36.8238 13.6744 19.8192 -26.7224 47.2633 0.0437 18.7489 5.1416 -5.8968 -3.3883 -2.4541 -0.2629 -4.7490 -2.6158 0.3732 1.6621 1.0509 -2.3952 -1.6897 -1.6100 10.0925 -0.3102 -10.4510 17.4853 -3.3516 29.5690 3.6671 -2.9235 1.8446 0.1126 -2.2060 -20.1341 -20.0923 -11.2001 -27.1544 6.0966 16.8842 10.6636 11.8104 2.5013 7.3715 0.0000 -0.0000 0.0000 -10.1114 9.0592 -2.1509 1.4679 48.9932 -3.7832 -0.8305 15.9270 6.8812 -0.0000 -1.0904 -0.0000 
0.5161 8.3372 0.3067 -2.9450 -0.0531 5.7730 0.0000 -0.0000 0.0000 4.5842 -18.5754 -16.4373 6.3418 19.7216 2.3404 -0.8590 -1.4301 9.1942 -0.0000 -1.7009 -0.0000 0.0000 -0.0000 0.0000 1.1819 0.4033 -1.6224 2.2820 0.8504 -3.6185 -10.3981 5.8381 -0.5148 17.0137 20.3389 -31.1761 9.5230 11.6485 -1.0985 -14.0102 34.5276 16.0315 19.5548 -26.3787 47.1380 -2.7958 21.2727 2.2216 -5.7435 -3.5545 -2.3293 -0.0869 -5.1306 -3.0606 0.4500 1.4693 0.8052 -2.3990 -2.3828 -0.9614 9.9511 -0.3222 -10.3522 15.8476 -2.0127 31.3286 4.8615 -4.2500 1.7456 3.8793 -5.1402 -24.0035 -20.9514 -9.8293 -28.7467 4.0887 15.8446 8.7076 11.6140 2.3217 7.2053 0.0000 -0.0000 0.0000 -8.6092 0.9191 -3.0677 0.1463 58.5786 -3.0989 -3.0326 11.8375 3.1424 0.0000 -0.8526 0.0000 
0.5401 8.4272 0.2693 -3.0421 -0.1112 6.2466 0.0000 -0.0000 0.0000 4.4190 -13.7434 -16.7878 5.0901 17.8603 1.5569 -1.2514 -4.0755 9.7005 0.0000 -2.3180 -0.0000 0.0000 -0.0000 0.0000 0.9454 0.6683 -1.7864 1.7932 1.3667 -3.6507 -11.6465 5.7787 -0.3092 11.1170 16.2608 -32.0393 9.9111 12.0604 -1.0264 -12.5964 31.9956 20.9615 19.3237 -25.9345 47.0262 -3.5168 21.8156 1.3214 -5.6730 -3.6312 -2.2719 0.0953 -5.1059 -3.3975 0.5543 1.4867 0.6247 -2.1879 -3.0809 -0.8210 9.8423 -0.3234 -10.3575 13.8298 -0.4216 33.5267 4.7913 -4.1723 1.7522 10.8881 -9.3902 -29.9456 -22.2244 -8.7210 -30.1806 2.3304 14.9126 7.0338 11.5247 2.2397 7.1298 0.0000 -0.0000 0.0000 -7.1555 -7.4911 -2.5602 1.6919 64.1072 -0.8082 -8.6233 6.7000 -0.3676 -0.0000 -0.8966 0.0000 
